<svg width="299" height="299" viewBox="0 0 299 299" fill="none" xmlns="http://www.w3.org/2000/svg">
<path d="M266.655 79.2947C261.105 75.214 251.356 76.8177 244.469 82.9546C236.086 90.4241 230.754 98.0965 222.882 111.229L191.727 90.3079C189.678 88.6744 187.276 87.5422 184.713 87.0015C182.149 86.4609 179.495 86.5267 176.961 87.1937L43.477 115.567C41.1161 116.065 38.8764 117.023 36.8859 118.387C34.8955 119.751 33.1931 121.494 31.8761 123.516C30.5591 125.538 29.6532 127.799 29.2102 130.171C28.7672 132.543 28.7957 134.979 29.2941 137.34L43.9172 206.137C44.9371 210.902 47.8082 215.067 51.8989 217.715C55.9895 220.363 60.9647 221.278 65.7299 220.258L199.214 191.885C201.764 191.363 204.173 190.304 206.281 188.777C208.39 187.251 210.148 185.293 211.441 183.034L238.655 139.668C242.688 133.232 242.511 127.196 239.093 122.89C253.577 113.016 265.187 102.281 268.498 94.9678C272.888 85.2727 268.673 80.7774 266.655 79.2947ZM236.064 138.043L208.863 181.389C207.784 183.302 206.308 184.961 204.534 186.256C202.76 187.551 200.729 188.45 198.579 188.894L65.0939 217.267C61.1225 218.114 56.9774 217.35 53.5682 215.144C50.1589 212.939 47.7638 209.47 46.9084 205.501L32.2847 136.703C31.4517 132.729 32.2292 128.587 34.4466 125.185C36.664 121.783 40.1402 119.4 44.1126 118.558L177.569 90.1908C183.297 89.0834 186.034 90.1108 190.022 92.8465L234.155 122.482L234.162 122.487C230.435 124.926 226.556 127.285 222.622 129.495C221.521 127.47 219.7 125.932 217.519 125.186C215.339 124.439 212.957 124.539 210.847 125.464C208.736 126.389 207.049 128.073 206.12 130.183C205.191 132.292 205.088 134.673 205.831 136.855C206.574 139.037 208.108 140.861 210.131 141.965C212.154 143.07 214.518 143.375 216.755 142.82C218.992 142.265 220.939 140.891 222.212 138.969C223.484 137.047 223.989 134.717 223.626 132.441C228.055 129.976 232.399 127.331 236.546 124.598C239.418 128.053 239.301 132.877 236.064 138.043ZM214.442 136.208C214.67 136.401 214.95 136.523 215.246 136.558C215.542 136.594 215.843 136.542 216.11 136.409C217.637 135.649 219.161 134.862 220.681 134.05C220.653 135.197 220.303 136.314 219.67 137.271C219.037 138.229 218.147 138.989 217.102 139.464C216.057 139.939 214.899 140.11 213.761 139.957C212.624 139.805 211.552 139.335 210.669 138.601C209.786 137.868 209.128 136.9 208.77 135.81C208.411 134.719 208.367 133.55 208.643 132.435C208.918 131.321 209.502 130.307 210.328 129.509C211.153 128.712 212.187 128.163 213.31 127.925C214.192 127.742 215.104 127.759 215.98 127.974L213.966 134.595C213.879 134.881 213.877 135.187 213.962 135.473C214.047 135.76 214.214 136.015 214.442 136.208ZM217.939 132.04L218.733 129.433C219.21 129.883 219.611 130.407 219.921 130.985C219.261 131.342 218.6 131.693 217.939 132.04ZM265.712 93.7055C262.609 100.56 251.073 111.056 236.871 120.68C236.542 120.421 236.202 120.169 235.842 119.931L225.424 112.936C233.179 99.9909 238.386 92.4704 246.504 85.2375C252.947 79.4986 261.041 78.9625 264.844 81.7584C267.881 83.9915 268.189 88.2345 265.712 93.7055Z" fill="#0B904B"/>
<path d="M57.1558 154.296L71.7249 151.373L72.2566 154.023L60.6596 156.35L62.0489 163.274L67.4108 162.198C69.3921 161.801 71.0028 161.674 72.243 161.819C73.4933 161.961 74.5763 162.487 75.4921 163.398C76.4058 164.298 77.002 165.443 77.2807 166.832C77.5081 167.965 77.4659 169.079 77.154 170.172C76.8503 171.253 76.2604 172.205 75.3845 173.029C74.5087 173.853 72.8656 174.506 70.4553 174.99L61.6617 176.754L57.1558 154.296ZM64.1266 173.63L70.0707 172.438C71.6741 172.116 72.8086 171.548 73.4741 170.735C74.1498 169.919 74.3565 168.858 74.0942 167.551C73.9077 166.621 73.5222 165.891 72.9376 165.36C72.3531 164.83 71.6317 164.544 70.7737 164.504C69.9157 164.463 68.5011 164.641 66.53 165.036L62.5622 165.833L64.1266 173.63ZM77.6536 150.183L80.3499 149.642L83.9183 167.428L92.2993 147.245L95.2866 146.645L99.7925 169.104L97.0962 169.645L93.537 151.905L85.1315 172.046L82.1595 172.642L77.6536 150.183ZM102.166 162.03L104.853 160.726C105.286 161.776 106.078 162.754 107.226 163.66C108.385 164.565 109.736 164.862 111.278 164.553C112.851 164.237 114.011 163.585 114.758 162.596C115.505 161.606 115.764 160.54 115.534 159.396C115.286 158.16 114.609 157.276 113.504 156.744C112.396 156.201 111.015 156.095 109.361 156.427L107.936 156.713L107.417 154.124C108.785 153.85 109.817 153.563 110.511 153.264C111.203 152.955 111.761 152.424 112.183 151.67C112.614 150.903 112.746 150.107 112.58 149.279C112.383 148.299 111.829 147.523 110.918 146.952C110.017 146.378 108.917 146.221 107.62 146.482C106.487 146.709 105.574 147.19 104.882 147.924C104.198 148.645 103.797 149.506 103.679 150.507C103.559 151.498 103.545 152.224 103.637 152.683L100.659 152.611C100.407 147.7 102.563 144.787 107.128 143.871C109.324 143.431 111.189 143.694 112.721 144.661C114.252 145.619 115.181 146.914 115.509 148.548C115.929 150.642 115.264 152.465 113.515 154.016C114.722 154.103 115.807 154.56 116.77 155.387C117.741 156.202 118.362 157.288 118.635 158.646C119.022 160.577 118.596 162.346 117.357 163.955C116.126 165.551 114.275 166.597 111.803 167.093C107.555 167.945 104.342 166.258 102.166 162.03ZM123.722 164.303L119.216 141.844L122.188 141.248L124.038 150.471L135.712 148.129L133.862 138.906L136.834 138.31L141.34 160.768L138.368 161.365L136.244 150.779L124.57 153.121L126.694 163.707L123.722 164.303ZM146.364 159.76L141.859 137.302L158.097 134.044L158.629 136.694L145.362 139.356L146.742 146.234L159.167 143.742L159.695 146.377L147.271 148.869L148.805 156.514L162.592 153.747L163.124 156.398L146.364 159.76ZM181.674 144.485L184.797 144.639C184.664 147.205 183.914 149.294 182.549 150.907C181.191 152.507 179.343 153.542 177.004 154.011C174.584 154.497 172.514 154.402 170.796 153.727C169.085 153.04 167.644 151.841 166.473 150.132C165.311 148.421 164.516 146.493 164.085 144.348C163.616 142.01 163.651 139.883 164.192 137.968C164.74 136.042 165.746 134.464 167.21 133.235C168.682 131.994 170.409 131.175 172.39 130.778C174.637 130.327 176.642 130.52 178.403 131.356C180.164 132.193 181.554 133.587 182.573 135.539L179.785 136.816C178.937 135.286 177.942 134.248 176.802 133.701C175.662 133.155 174.341 133.032 172.839 133.333C171.113 133.679 169.751 134.383 168.753 135.444C167.765 136.502 167.176 137.779 166.987 139.272C166.796 140.755 166.849 142.237 167.146 143.718C167.529 145.628 168.14 147.243 168.978 148.562C169.825 149.869 170.906 150.757 172.222 151.226C173.538 151.695 174.88 151.792 176.249 151.518C177.914 151.184 179.227 150.421 180.188 149.229C181.15 148.038 181.645 146.456 181.674 144.485Z" fill="#0B904B"/>
</svg>
