<svg width="100" height="100" viewBox="0 0 100 100" fill="none" xmlns="http://www.w3.org/2000/svg">
<path d="M89.1804 26.5951C87.3179 25.2257 84.0465 25.7639 81.7355 27.8233C78.9222 30.3298 77.1331 32.9044 74.4915 37.3114L64.0365 30.2908C63.3491 29.7427 62.5432 29.3627 61.6829 29.1813C60.8226 28.9999 59.9319 29.022 59.0816 29.2458L14.2883 38.7669C13.4961 38.9341 12.7445 39.2558 12.0766 39.7135C11.4086 40.1712 10.8374 40.7559 10.3954 41.4344C9.95346 42.1129 9.64948 42.8717 9.50081 43.6677C9.35215 44.4636 9.36171 45.2811 9.52896 46.0733L14.4361 69.1595C14.7783 70.7586 15.7418 72.1562 17.1145 73.0449C18.4872 73.9336 20.1567 74.2406 21.7557 73.8983L66.549 64.3772C67.4046 64.202 68.2131 63.8465 68.9206 63.3343C69.6281 62.8221 70.2183 62.1651 70.652 61.4069L79.7842 46.8547C81.1377 44.695 81.0781 42.6693 79.9311 41.2243C84.7916 37.9109 88.6878 34.3086 89.7989 31.8546C91.2719 28.6012 89.8574 27.0927 89.1804 26.5951ZM78.9149 46.3092L69.787 60.855C69.425 61.4968 68.9296 62.0537 68.3343 62.4882C67.739 62.9226 67.0576 63.2245 66.3358 63.3735L21.5423 72.8946C20.2096 73.1786 18.8187 72.9225 17.6746 72.1823C16.5306 71.442 15.7269 70.2782 15.4398 68.9462L10.5325 45.8598C10.253 44.5262 10.5139 43.1361 11.258 41.9946C12.0021 40.853 13.1686 40.0533 14.5016 39.7708L59.2856 30.2515C61.2077 29.8799 62.1264 30.2247 63.4645 31.1427L78.2743 41.0875L78.2767 41.0893C77.026 41.9075 75.7243 42.6993 74.4042 43.4407C74.0347 42.7613 73.4236 42.2453 72.6919 41.9948C71.9601 41.7444 71.161 41.7777 70.4526 42.0882C69.7442 42.3987 69.1782 42.9638 68.8666 43.6717C68.5549 44.3795 68.5202 45.1786 68.7695 45.9108C69.0188 46.6429 69.5338 47.2549 70.2126 47.6255C70.8914 47.9962 71.6847 48.0985 72.4354 47.9123C73.1861 47.7261 73.8395 47.2649 74.2664 46.62C74.6934 45.975 74.8627 45.1934 74.7409 44.4296C76.2271 43.6023 77.6851 42.7148 79.0765 41.7974C80.0403 42.9571 80.0012 44.5758 78.9149 46.3092ZM71.6592 45.6935C71.7357 45.7582 71.8295 45.7991 71.929 45.8111C72.0284 45.8231 72.1292 45.8056 72.2189 45.7609C72.7313 45.5058 73.2426 45.242 73.7528 44.9693C73.7435 45.3544 73.6259 45.7291 73.4134 46.0504C73.201 46.3717 72.9023 46.6267 72.5517 46.7861C72.201 46.9455 71.8125 47.0029 71.4308 46.9517C71.049 46.9005 70.6894 46.7428 70.3931 46.4966C70.0968 46.2505 69.8759 45.9258 69.7556 45.5599C69.6354 45.1939 69.6206 44.8015 69.7131 44.4276C69.8056 44.0537 70.0016 43.7134 70.2785 43.4457C70.5555 43.178 70.9023 42.9937 71.2792 42.9141C71.5753 42.8526 71.8814 42.8582 72.1751 42.9304L71.4994 45.1524C71.4701 45.2483 71.4696 45.3508 71.4981 45.447C71.5265 45.5433 71.5825 45.6288 71.6592 45.6935ZM72.8327 44.295L73.0989 43.4202C73.2591 43.5711 73.3938 43.7469 73.4978 43.9409C73.2762 44.0606 73.0545 44.1786 72.8327 44.295ZM88.8637 31.431C87.8226 33.7311 83.9516 37.2531 79.1857 40.4828C79.0754 40.3959 78.9613 40.3114 78.8405 40.2314L75.3445 37.8841C77.9468 33.5402 79.6939 31.0165 82.418 28.5894C84.5801 26.6635 87.2964 26.4836 88.5727 27.4219C89.5918 28.1712 89.695 29.5951 88.8637 31.431Z" fill="#0B904B"/>
<path d="M29.3098 49.6019L35.2372 48.4127L36.7492 55.9492L35.7468 56.1503L34.4132 49.5032L30.4856 50.2912L31.8192 56.9383L30.8218 57.1384L29.3098 49.6019ZM38.3789 55.6222L36.8668 48.0858L39.7097 47.5154C40.2101 47.415 40.597 47.3623 40.8706 47.3573C41.2531 47.3448 41.587 47.4008 41.8722 47.5254C42.1568 47.6465 42.4058 47.8479 42.6191 48.1296C42.8359 48.4105 42.9818 48.7378 43.0568 49.1113C43.1853 49.7522 43.0904 50.3363 42.772 50.8637C42.4528 51.3876 41.7603 51.7565 40.6944 51.9704L38.7615 52.3582L39.3762 55.4221L38.3789 55.6222ZM38.5831 51.4688L40.5314 51.0779C41.1757 50.9487 41.6092 50.7369 41.8318 50.4427C42.0545 50.1484 42.1221 49.7837 42.0348 49.3484C41.9715 49.0331 41.837 48.7803 41.6312 48.5898C41.4282 48.3952 41.1892 48.2881 40.9143 48.2684C40.7374 48.2575 40.4228 48.2975 39.9704 48.3882L38.0426 48.775L38.5831 51.4688ZM44.1251 50.6511C43.8741 49.4001 44.0136 48.3543 44.5437 47.5135C45.0731 46.6693 45.8691 46.1406 46.9315 45.9274C47.6272 45.7878 48.2878 45.8282 48.9131 46.0486C49.5384 46.269 50.0566 46.6481 50.4675 47.186C50.8812 47.7198 51.1637 48.3636 51.315 49.1176C51.4683 49.8819 51.4513 50.5966 51.2638 51.2616C51.0764 51.9267 50.7312 52.4719 50.2283 52.8973C49.7247 53.3192 49.1456 53.5958 48.491 53.7271C47.7816 53.8695 47.1131 53.8253 46.4857 53.5947C45.8583 53.364 45.3412 52.9811 44.9344 52.446C44.5275 51.9108 44.2578 51.3125 44.1251 50.6511ZM45.1563 50.4602C45.3385 51.3684 45.7256 52.0359 46.3174 52.4626C46.9121 52.8852 47.5778 53.0226 48.3146 52.8748C49.0652 52.7242 49.6292 52.3365 50.0065 51.7118C50.3873 51.0863 50.4804 50.2887 50.2858 49.3188C50.1627 48.7053 49.9509 48.1916 49.6504 47.7777C49.3526 47.3597 48.9781 47.0659 48.527 46.8961C48.0785 46.7223 47.6058 46.6852 47.1089 46.7849C46.4029 46.9266 45.8434 47.292 45.4303 47.8811C45.0201 48.4661 44.9287 49.3258 45.1563 50.4602Z" fill="#0B904B"/>
</svg>
