<svg width="299" height="299" viewBox="0 0 299 299" fill="none" xmlns="http://www.w3.org/2000/svg">
<path d="M266.655 79.2947C261.105 75.214 251.356 76.8177 244.469 82.9546C236.086 90.4241 230.754 98.0965 222.882 111.229L191.727 90.3079C189.678 88.6744 187.276 87.5422 184.713 87.0015C182.149 86.4609 179.495 86.5267 176.961 87.1937L43.477 115.567C41.1161 116.065 38.8764 117.023 36.8859 118.387C34.8954 119.751 33.1931 121.494 31.8761 123.516C30.5591 125.538 29.6532 127.799 29.2102 130.171C28.7671 132.543 28.7956 134.979 29.2941 137.34L43.9172 206.137C44.9371 210.902 47.8082 215.067 51.8988 217.715C55.9895 220.363 60.9647 221.278 65.7299 220.258L199.214 191.885C201.764 191.363 204.173 190.304 206.281 188.777C208.39 187.251 210.148 185.293 211.441 183.034L238.655 139.668C242.688 133.232 242.511 127.196 239.093 122.89C253.577 113.016 265.187 102.281 268.498 94.9678C272.888 85.2727 268.673 80.7774 266.655 79.2947ZM236.064 138.043L208.863 181.389C207.784 183.302 206.308 184.961 204.534 186.256C202.76 187.551 200.729 188.45 198.579 188.894L65.0939 217.267C61.1225 218.114 56.9774 217.35 53.5681 215.144C50.1588 212.939 47.7638 209.47 46.9084 205.501L32.2846 136.703C31.4517 132.729 32.2292 128.587 34.4466 125.185C36.664 121.783 40.1402 119.4 44.1126 118.558L177.569 90.1908C183.297 89.0834 186.034 90.1108 190.022 92.8465L234.155 122.482L234.162 122.487C230.435 124.926 226.556 127.285 222.622 129.495C221.521 127.47 219.7 125.932 217.519 125.186C215.339 124.439 212.957 124.539 210.847 125.464C208.736 126.389 207.049 128.073 206.12 130.183C205.191 132.292 205.088 134.673 205.831 136.855C206.574 139.037 208.108 140.861 210.131 141.965C212.154 143.07 214.518 143.375 216.755 142.82C218.992 142.265 220.939 140.891 222.212 138.969C223.484 137.047 223.989 134.717 223.626 132.441C228.055 129.976 232.399 127.331 236.546 124.598C239.418 128.053 239.301 132.877 236.064 138.043ZM214.442 136.208C214.67 136.401 214.95 136.523 215.246 136.558C215.542 136.594 215.843 136.542 216.11 136.409C217.637 135.649 219.161 134.862 220.681 134.05C220.653 135.197 220.303 136.314 219.67 137.271C219.037 138.229 218.147 138.989 217.102 139.464C216.057 139.939 214.899 140.11 213.761 139.957C212.624 139.805 211.552 139.335 210.669 138.601C209.786 137.868 209.128 136.9 208.77 135.81C208.411 134.719 208.367 133.55 208.643 132.435C208.918 131.321 209.502 130.307 210.328 129.509C211.153 128.712 212.187 128.163 213.31 127.925C214.192 127.742 215.104 127.759 215.98 127.974L213.966 134.595C213.879 134.881 213.877 135.187 213.962 135.473C214.047 135.76 214.214 136.015 214.442 136.208ZM217.939 132.04L218.733 129.433C219.21 129.883 219.611 130.407 219.921 130.985C219.261 131.342 218.6 131.693 217.939 132.04ZM265.712 93.7055C262.609 100.56 251.073 111.056 236.871 120.68C236.542 120.421 236.202 120.169 235.842 119.931L225.424 112.936C233.179 99.9909 238.386 92.4704 246.503 85.2375C252.947 79.4986 261.041 78.9625 264.844 81.7584C267.881 83.9915 268.189 88.2345 265.712 93.7055Z" fill="#0B904B"/>
<path d="M89.9706 162.883L93.0933 163.037C92.96 165.603 92.2105 167.693 90.8448 169.305C89.4872 170.906 87.6391 171.94 85.3003 172.41C82.8797 172.895 80.8103 172.8 79.0918 172.125C77.3815 171.438 75.9405 170.24 74.7689 168.53C73.6075 166.819 72.8117 164.891 72.3814 162.746C71.9121 160.408 71.9476 158.281 72.4878 156.367C73.0362 154.44 74.0424 152.862 75.5064 151.633C76.9785 150.392 78.7053 149.573 80.6866 149.176C82.9335 148.725 84.9377 148.918 86.6992 149.754C88.4606 150.591 89.8506 151.985 90.8692 153.938L88.0814 155.214C87.2327 153.684 86.2382 152.646 85.098 152.099C83.9577 151.553 82.6369 151.43 81.1356 151.731C79.4096 152.077 78.0474 152.781 77.0491 153.842C76.0609 154.901 75.4723 156.177 75.2833 157.67C75.0921 159.153 75.1451 160.636 75.4422 162.116C75.8254 164.026 76.4362 165.641 77.2746 166.96C78.1211 168.267 79.2023 169.155 80.5182 169.624C81.8341 170.093 83.1764 170.19 84.5449 169.916C86.2097 169.582 87.5228 168.819 88.4842 167.627C89.4457 166.436 89.9412 164.854 89.9706 162.883ZM102.872 168.486L98.8976 148.677L91.4981 150.162L90.9664 147.512L108.768 143.94L109.3 146.59L101.87 148.081L105.844 167.89L102.872 168.486ZM112.83 166.488L116.949 142.299L120.15 141.656L133.848 162.271L130.463 162.95L126.478 156.674L117.087 158.558L115.985 165.855L112.83 166.488ZM117.459 155.965L125.073 154.438L121.482 148.688C120.388 146.942 119.545 145.496 118.954 144.351C118.957 145.848 118.84 147.359 118.604 148.883L117.459 155.965ZM136.223 161.795L131.717 139.336L140.189 137.636C141.68 137.337 142.833 137.18 143.648 137.165C144.788 137.128 145.783 137.295 146.633 137.666C147.481 138.027 148.223 138.627 148.859 139.466C149.505 140.304 149.939 141.279 150.163 142.392C150.546 144.302 150.263 146.043 149.314 147.614C148.363 149.176 146.299 150.275 143.123 150.912L137.363 152.068L139.195 161.198L136.223 161.795ZM136.831 149.417L142.637 148.253C144.557 147.867 145.849 147.236 146.513 146.36C147.176 145.483 147.378 144.396 147.117 143.099C146.929 142.159 146.528 141.406 145.915 140.838C145.31 140.258 144.598 139.939 143.778 139.88C143.251 139.848 142.314 139.967 140.965 140.237L135.221 141.39L136.831 149.417ZM161.454 156.732L157.48 136.924L150.081 138.409L149.549 135.758L167.35 132.187L167.882 134.837L160.452 136.328L164.426 156.136L161.454 156.732Z" fill="#0B904B"/>
</svg>
