<svg width="299" height="298" viewBox="0 0 299 298" fill="none" xmlns="http://www.w3.org/2000/svg">
<path d="M266.655 79.2559C261.105 75.1752 251.356 76.7789 244.469 82.9158C236.086 90.3853 230.754 98.0577 222.882 111.19L191.727 90.2691C189.678 88.6356 187.276 87.5034 184.713 86.9627C182.149 86.422 179.495 86.4879 176.961 87.1549L43.477 115.528C41.1161 116.026 38.8764 116.985 36.8859 118.349C34.8955 119.712 33.1931 121.455 31.8761 123.477C30.5591 125.499 29.6532 127.76 29.2102 130.132C28.7672 132.504 28.7957 134.94 29.2941 137.301L43.9172 206.098C44.9371 210.863 47.8082 215.028 51.8989 217.676C55.9895 220.324 60.9647 221.239 65.7299 220.219L199.214 191.847C201.764 191.324 204.173 190.265 206.281 188.739C208.39 187.212 210.148 185.254 211.441 182.995L238.655 139.629C242.688 133.194 242.511 127.157 239.093 122.851C253.577 112.977 265.187 102.242 268.498 94.929C272.888 85.2339 268.673 80.7386 266.655 79.2559ZM236.064 138.004L208.863 181.35C207.784 183.263 206.308 184.923 204.534 186.217C202.76 187.512 200.729 188.411 198.579 188.855L65.0939 217.228C61.1225 218.075 56.9774 217.311 53.5682 215.106C50.1589 212.9 47.7638 209.432 46.9084 205.462L32.2847 136.665C31.4517 132.69 32.2292 128.548 34.4466 125.146C36.664 121.744 40.1402 119.361 44.1126 118.519L177.569 90.1519C183.297 89.0446 186.034 90.072 190.022 92.8077L234.155 122.443L234.162 122.448C230.435 124.887 226.556 127.246 222.622 129.456C221.521 127.431 219.7 125.893 217.519 125.147C215.339 124.401 212.957 124.5 210.847 125.425C208.736 126.351 207.049 128.035 206.12 130.144C205.191 132.253 205.088 134.635 205.831 136.816C206.574 138.998 208.108 140.822 210.131 141.926C212.154 143.031 214.518 143.336 216.755 142.781C218.992 142.226 220.939 140.852 222.212 138.93C223.484 137.008 223.989 134.679 223.626 132.403C228.055 129.937 232.399 127.292 236.546 124.559C239.418 128.014 239.301 132.838 236.064 138.004ZM214.442 136.169C214.67 136.362 214.95 136.484 215.246 136.519C215.542 136.555 215.843 136.503 216.11 136.37C217.637 135.61 219.161 134.823 220.681 134.011C220.653 135.159 220.303 136.275 219.67 137.233C219.037 138.19 218.147 138.95 217.102 139.425C216.057 139.9 214.899 140.071 213.761 139.919C212.624 139.766 211.552 139.296 210.669 138.562C209.786 137.829 209.128 136.861 208.77 135.771C208.411 134.68 208.367 133.511 208.643 132.397C208.918 131.282 209.502 130.268 210.328 129.471C211.153 128.673 212.187 128.124 213.31 127.886C214.192 127.703 215.104 127.72 215.98 127.935L213.966 134.556C213.879 134.842 213.877 135.148 213.962 135.435C214.047 135.721 214.214 135.976 214.442 136.169ZM217.939 132.002L218.733 129.395C219.21 129.844 219.611 130.368 219.921 130.946C219.261 131.303 218.6 131.655 217.939 132.002ZM265.712 93.6667C262.609 100.521 251.073 111.017 236.871 120.641C236.542 120.382 236.202 120.13 235.842 119.892L225.424 112.897C233.179 99.9521 238.386 92.4315 246.504 85.1987C252.947 79.4597 261.041 78.9237 264.844 81.7196C267.881 83.9527 268.189 88.1957 265.712 93.6667Z" fill="#FAFAFA"/>
<path d="M87.642 148.14L105.306 144.596L109.812 167.055L106.824 167.654L102.85 147.846L91.1458 150.194L95.12 170.002L92.1479 170.599L87.642 148.14ZM114.668 166.08L110.162 143.622L118.634 141.922C120.125 141.623 121.278 141.466 122.093 141.451C123.233 141.414 124.228 141.581 125.078 141.952C125.926 142.313 126.668 142.913 127.304 143.752C127.95 144.589 128.385 145.565 128.608 146.678C128.991 148.588 128.708 150.328 127.759 151.9C126.808 153.461 124.745 154.561 121.568 155.198L115.808 156.354L117.64 165.484L114.668 166.08ZM115.276 153.703L121.083 152.538C123.003 152.153 124.294 151.522 124.958 150.645C125.621 149.769 125.823 148.682 125.562 147.385C125.374 146.445 124.973 145.691 124.36 145.124C123.755 144.544 123.043 144.225 122.223 144.166C121.696 144.134 120.759 144.253 119.411 144.523L113.666 145.676L115.276 153.703ZM131.792 151.266C131.044 147.539 131.459 144.422 133.039 141.916C134.617 139.401 136.989 137.825 140.155 137.19C142.228 136.774 144.196 136.894 146.06 137.551C147.923 138.208 149.467 139.337 150.692 140.94C151.925 142.531 152.767 144.45 153.218 146.697C153.674 148.974 153.624 151.104 153.065 153.086C152.507 155.068 151.478 156.693 149.979 157.96C148.478 159.217 146.753 160.042 144.802 160.433C142.688 160.857 140.696 160.726 138.826 160.038C136.957 159.351 135.416 158.21 134.203 156.615C132.991 155.02 132.187 153.237 131.792 151.266ZM134.865 150.698C135.408 153.404 136.561 155.393 138.325 156.665C140.097 157.924 142.081 158.334 144.276 157.893C146.513 157.444 148.194 156.289 149.318 154.427C150.453 152.563 150.73 150.186 150.15 147.296C149.784 145.468 149.153 143.937 148.257 142.704C147.37 141.458 146.254 140.583 144.909 140.077C143.573 139.559 142.164 139.448 140.683 139.745C138.579 140.167 136.912 141.256 135.681 143.012C134.459 144.755 134.186 147.317 134.865 150.698Z" fill="#FAFAFA"/>
</svg>
