<svg width="18" height="22" viewBox="0 0 18 22" fill="none" xmlns="http://www.w3.org/2000/svg">
<path d="M9.00005 9.52188C11.5438 9.52188 13.6063 7.52813 13.6063 5.05313C13.6063 2.57813 11.5438 0.584381 9.00005 0.584381C6.4563 0.584381 4.3938 2.57813 4.3938 5.05313C4.3938 7.52813 6.4563 9.52188 9.00005 9.52188ZM9.00005 2.16563C10.6844 2.16563 12.0594 3.47188 12.0594 5.08751C12.0594 6.70313 10.6844 8.00938 9.00005 8.00938C7.31567 8.00938 5.94067 6.70313 5.94067 5.08751C5.94067 3.47188 7.31567 2.16563 9.00005 2.16563Z" fill="#64748B"/>
<path d="M11.2344 11.0688H6.76567C3.08755 11.0688 0.0969238 14.0938 0.0969238 17.7719V20.625C0.0969238 21.0375 0.440674 21.4156 0.887549 21.4156C1.33442 21.4156 1.67817 21.0719 1.67817 20.625V17.7719C1.67817 14.9531 3.9813 12.6156 6.83442 12.6156H11.2688C14.0875 12.6156 16.425 14.9188 16.425 17.7719V20.625C16.425 21.0375 16.7688 21.4156 17.2157 21.4156C17.6625 21.4156 18.0063 21.0719 18.0063 20.625V17.7719C17.9032 14.0938 14.9125 11.0688 11.2344 11.0688Z" fill="#64748B"/>
</svg>
