<svg width="12" height="15" viewBox="0 0 12 15" fill="none" xmlns="http://www.w3.org/2000/svg">
<path d="M8.00013 1.10001V3.50001C8.00013 3.94183 8.3583 4.30001 8.80013 4.30001H11.2001M3.60013 11.5V8.30001M6.00013 11.5L6.00013 5.10001M8.40013 11.5V8.30001M10.0001 2.30001C9.64408 1.98143 9.27461 1.60359 9.04136 1.35819C8.88615 1.1949 8.67171 1.10001 8.44642 1.10001H2.39994C1.51629 1.10001 0.799949 1.81635 0.799943 2.7L0.799881 12.3C0.799875 13.1836 1.51622 13.9 2.39987 13.9L9.5999 13.9C10.4835 13.9 11.1999 13.1837 11.1999 12.3L11.2001 3.81856C11.2001 3.614 11.1221 3.41736 10.9801 3.27009C10.7176 2.99777 10.2792 2.54968 10.0001 2.30001Z" stroke="#fff" stroke-width="1.33333" stroke-linecap="round" stroke-linejoin="round"/>
</svg>
