<svg width="106" height="97" viewBox="0 0 106 97" fill="none" xmlns="http://www.w3.org/2000/svg">
<path d="M73.127 91.025L73.1285 74.9562C73.1293 66.0803 65.9341 58.8845 57.0582 58.8845H21.0721C12.1974 58.8845 5.00277 66.0783 5.00178 74.953L4.99997 91.025M100.999 91.0259L101 74.9571C101.001 66.0812 93.8056 58.8854 84.9297 58.8854M70.0317 8.47393C73.9781 11.4021 76.5357 16.0964 76.5357 21.388C76.5357 26.6797 73.9781 31.374 70.0317 34.3022M55.469 21.3872C55.469 30.2625 48.2741 37.4575 39.3987 37.4575C30.5233 37.4575 23.3284 30.2625 23.3284 21.3872C23.3284 12.5118 30.5233 5.31689 39.3987 5.31689C48.2741 5.31689 55.469 12.5118 55.469 21.3872Z" stroke="#0B904B" stroke-width="10" stroke-linecap="round" stroke-linejoin="round"/>
</svg>
