<svg width="16" height="15" viewBox="0 0 16 15" fill="none" xmlns="http://www.w3.org/2000/svg">
<path d="M1.60004 0.328481C1.23185 0.328481 0.93337 0.626958 0.93337 0.995148C0.93337 1.36334 1.23185 1.66181 1.60004 1.66181V0.328481ZM3.12839 0.995148L3.77188 0.820871C3.69317 0.530269 3.42947 0.328481 3.12839 0.328481V0.995148ZM5.61198 10.1653L4.96849 10.3396C5.05534 10.6602 5.36502 10.868 5.69467 10.8268L5.61198 10.1653ZM13.2538 9.21007L13.3365 9.87159C13.6196 9.8362 13.8488 9.62456 13.9066 9.34515L13.2538 9.21007ZM14.4 3.66978L15.0529 3.80485C15.0935 3.6085 15.0436 3.4043 14.917 3.24883C14.7904 3.09335 14.6005 3.00311 14.4 3.00311V3.66978ZM3.85277 3.66978L3.20929 3.84405L3.20929 3.84405L3.85277 3.66978ZM1.60004 1.66181H3.12839V0.328481H1.60004V1.66181ZM5.69467 10.8268L13.3365 9.87159L13.1711 8.54856L5.52929 9.50378L5.69467 10.8268ZM13.9066 9.34515L15.0529 3.80485L13.7472 3.5347L12.6009 9.075L13.9066 9.34515ZM2.48491 1.16942L3.20929 3.84405L4.49626 3.4955L3.77188 0.820871L2.48491 1.16942ZM3.20929 3.84405L4.96849 10.3396L6.25546 9.99102L4.49626 3.4955L3.20929 3.84405ZM14.4 3.00311H3.85277V4.33644H14.4V3.00311ZM7.33337 12.6667C7.33337 12.8508 7.18413 13 7.00004 13V14.3333C7.92051 14.3333 8.6667 13.5871 8.6667 12.6667H7.33337ZM7.00004 13C6.81594 13 6.6667 12.8508 6.6667 12.6667H5.33337C5.33337 13.5871 6.07956 14.3333 7.00004 14.3333V13ZM6.6667 12.6667C6.6667 12.4826 6.81594 12.3333 7.00004 12.3333V11C6.07956 11 5.33337 11.7462 5.33337 12.6667H6.6667ZM7.00004 12.3333C7.18413 12.3333 7.33337 12.4826 7.33337 12.6667H8.6667C8.6667 11.7462 7.92051 11 7.00004 11V12.3333ZM12.6667 12.6667C12.6667 12.8508 12.5175 13 12.3334 13V14.3333C13.2538 14.3333 14 13.5871 14 12.6667H12.6667ZM12.3334 13C12.1493 13 12 12.8508 12 12.6667H10.6667C10.6667 13.5871 11.4129 14.3333 12.3334 14.3333V13ZM12 12.6667C12 12.4826 12.1493 12.3333 12.3334 12.3333V11C11.4129 11 10.6667 11.7462 10.6667 12.6667H12ZM12.3334 12.3333C12.5175 12.3333 12.6667 12.4826 12.6667 12.6667H14C14 11.7462 13.2538 11 12.3334 11V12.3333Z" fill="#FAFAFA"/>
</svg>
