<svg width="24" height="25" viewBox="0 0 24 25" fill="none" xmlns="http://www.w3.org/2000/svg">
<g clip-path="url(#clip0_3_157)">
<g clip-path="url(#clip1_3_157)">
<g clip-path="url(#clip2_3_157)">
<path fill-rule="evenodd" clip-rule="evenodd" d="M24 12.1099C24 18.7373 18.6274 24.1099 12 24.1099C5.37258 24.1099 0 18.7373 0 12.1099C0 5.48244 5.37258 0.109863 12 0.109863C18.6274 0.109863 24 5.48244 24 12.1099ZM12.4296 8.96894C11.2624 9.45441 8.92968 10.4592 5.43143 11.9834C4.86337 12.2093 4.5658 12.4303 4.53871 12.6464C4.49293 13.0115 4.95025 13.1553 5.57301 13.3512C5.65772 13.3778 5.74549 13.4054 5.83548 13.4347C6.44818 13.6338 7.27237 13.8668 7.70083 13.8761C8.08948 13.8845 8.52327 13.7242 9.00218 13.3954C12.2707 11.1891 13.9579 10.0738 14.0638 10.0498C14.1386 10.0328 14.2421 10.0115 14.3123 10.0739C14.3825 10.1363 14.3756 10.2544 14.3681 10.2861C14.3228 10.4792 12.5277 12.1481 11.5987 13.0118C11.309 13.2811 11.1036 13.4721 11.0616 13.5157C10.9675 13.6134 10.8717 13.7058 10.7795 13.7947C10.2103 14.3434 9.78345 14.7549 10.8032 15.4268C11.2932 15.7498 11.6853 16.0168 12.0765 16.2832C12.5037 16.5741 12.9298 16.8643 13.4812 17.2257C13.6216 17.3178 13.7558 17.4134 13.8864 17.5066C14.3836 17.861 14.8303 18.1795 15.3821 18.1287C15.7028 18.0992 16.034 17.7977 16.2022 16.8984C16.5998 14.7732 17.3812 10.1685 17.5618 8.27098C17.5776 8.10474 17.5577 7.89198 17.5417 7.79858C17.5257 7.70519 17.4923 7.57212 17.3709 7.47361C17.2271 7.35695 17.0052 7.33235 16.9059 7.33409C16.4546 7.34204 15.7621 7.58283 12.4296 8.96894Z" fill="#ABB5B5"/>
</g>
</g>
</g>
<defs>
<clipPath id="clip0_3_157">
<rect width="24" height="24" fill="white" transform="translate(0 0.109863)"/>
</clipPath>
<clipPath id="clip1_3_157">
<rect width="24" height="24" fill="white" transform="translate(0 0.109863)"/>
</clipPath>
<clipPath id="clip2_3_157">
<rect width="24" height="24" fill="white" transform="translate(0 0.109863)"/>
</clipPath>
</defs>
</svg>
