<svg width="23" height="22" viewBox="0 0 23 22" fill="none" xmlns="http://www.w3.org/2000/svg">
<path d="M18.3918 6.52946C18.3536 6.46869 18.3301 6.42345 18.3016 6.38371C17.8114 5.71412 17.1359 5.2027 16.3584 4.91256C15.5809 4.62243 14.7354 4.56628 13.9264 4.75104C13.1924 4.92401 12.4752 5.17357 11.7566 5.40664C11.351 5.5432 10.9096 5.52855 10.5139 5.36539C10.2326 5.25236 9.95139 5.14016 9.67515 5.01683C9.0044 4.70833 8.2619 4.58963 7.5284 4.67363C6.7949 4.75763 6.09846 5.04111 5.51482 5.49326C4.78613 6.01505 4.1971 6.70821 3.79972 7.51155C3.40235 8.31488 3.20885 9.20369 3.2363 10.0995C3.1935 12.0207 3.64233 13.921 4.54022 15.62C5.08237 16.7448 5.8321 17.7572 6.74998 18.6038C7.01624 18.8709 7.34733 19.0644 7.71084 19.1652C8.07434 19.266 8.45778 19.2706 8.82362 19.1786C9.2201 19.0606 9.60791 18.9152 9.98425 18.7435C10.686 18.4398 11.4662 18.3675 12.2118 18.5372C12.6203 18.6488 13.0188 18.7943 13.4031 18.9722C13.897 19.2333 14.4659 19.3155 15.0135 19.2049C15.5611 19.0944 16.0536 18.7979 16.4076 18.3657C17.1718 17.5394 17.8111 16.6058 18.3051 15.5944C18.5388 15.1298 18.7202 14.6385 18.9238 14.1621C18.1951 13.8525 17.5661 13.3474 17.1065 12.7027C16.6468 12.0579 16.3744 11.2986 16.3194 10.5088C16.2643 9.71888 16.4288 8.92916 16.7945 8.22689C17.1603 7.52462 17.7131 6.93717 18.3918 6.52946ZM14.9175 0C13.8364 0.0754868 12.8289 0.574636 12.1139 1.38894C11.3989 2.20323 11.0342 3.26686 11.0991 4.34858C12.888 4.67362 15.1512 2.21375 14.9175 0Z" fill="white"/>
</svg>
