<svg width="22" height="22" viewBox="0 0 22 22" fill="none" xmlns="http://www.w3.org/2000/svg">
<path d="M20.1132 3.73347C20.0994 3.39392 19.4708 2.76655 19.1859 2.79805C16.6579 3.07367 14.1434 3.46664 11.628 3.82469V10.2084H20.1569C20.1569 7.98216 20.1997 5.85565 20.1132 3.73347ZM11.6149 11.8006V18.1769C14.1438 18.5389 16.6224 18.9299 19.1146 19.2019C19.3404 19.1557 19.5505 19.052 19.7247 18.9011C19.8989 18.7501 20.0313 18.5568 20.1092 18.3399C20.1982 16.1855 20.1558 14.0261 20.1558 11.8006H11.6149ZM1.84421 5.90421C1.75824 7.31213 1.80746 8.72766 1.80746 10.1814H9.99156V4.04164C7.44938 4.36005 5.02703 4.63437 2.62003 5.00187C2.42583 5.07582 2.25317 5.19708 2.11769 5.35466C1.98222 5.51223 1.88822 5.70112 1.84421 5.90421ZM1.84067 16.0385C1.87313 16.2439 1.95574 16.438 2.08118 16.6038C2.20662 16.7696 2.37101 16.9019 2.55979 16.9889C4.99999 17.3644 7.45541 17.6433 9.93525 17.9552V11.7794H1.80654C1.80654 13.2778 1.75838 14.6627 1.84067 16.0385Z" fill="white"/>
</svg>
